<?xml version="1.0" standalone="no"?>
<!DOCTYPE svg PUBLIC "-//W3C//DTD SVG 20010904//EN"
 "http://www.w3.org/TR/2001/REC-SVG-20010904/DTD/svg10.dtd">
<svg version="1.0" xmlns="http://www.w3.org/2000/svg"
 width="1280.000000pt" height="1280.000000pt" viewBox="0 0 1280.000000 1280.000000"
 preserveAspectRatio="xMidYMid meet">
<metadata>
Created by potrace 1.15, written by Peter Selinger 2001-2017
</metadata>
<g transform="translate(0.000000,1280.000000) scale(0.100000,-0.100000)"
fill="#4caf50" stroke="none">
<path d="M5166 12790 c-154 -28 -281 -96 -409 -220 l-98 -95 1610 -1609 1610
-1610 22 20 c54 48 173 193 206 252 107 191 122 437 40 642 -58 142 -46 129
-1202 1289 -610 612 -1143 1140 -1183 1172 -80 65 -184 119 -277 144 -71 19
-250 28 -319 15z"/>
<path d="M2490 10305 l-1725 -1725 1610 -1610 1610 -1610 742 742 743 743 181
-181 181 -181 -27 -46 c-33 -57 -37 -133 -9 -195 18 -40 330 -371 4741 -5027
889 -939 1107 -1164 1148 -1185 41 -21 63 -25 130 -25 67 0 88 5 130 27 68 36
793 763 825 827 44 89 35 213 -20 290 -16 21 -453 441 -972 933 -519 491
-1576 1492 -2348 2223 -772 732 -1724 1633 -2115 2004 -502 476 -723 679 -754
693 -62 28 -129 26 -194 -6 l-52 -26 -180 180 -180 180 743 743 742 742 -1608
1608 c-884 884 -1609 1607 -1612 1607 -3 0 -781 -776 -1730 -1725z"/>
<path d="M229 8043 c-145 -152 -214 -302 -226 -493 -10 -159 33 -319 122 -456
44 -68 2194 -2229 2314 -2326 85 -69 157 -107 261 -140 64 -20 95 -23 215 -22
125 0 148 3 220 28 44 15 107 43 141 61 55 31 201 151 248 204 l20 22 -1610
1610 -1610 1610 -95 -98z"/>
</g>
</svg>
