<?xml version="1.0" standalone="no"?>
<!DOCTYPE svg PUBLIC "-//W3C//DTD SVG 20010904//EN"
 "http://www.w3.org/TR/2001/REC-SVG-20010904/DTD/svg10.dtd">
<svg version="1.0" xmlns="http://www.w3.org/2000/svg"
 width="5369.000000pt" height="1617.000000pt" viewBox="0 0 5369.000000 1617.000000"
 preserveAspectRatio="xMidYMid meet">
<metadata>
Created by potrace 1.16, written by Peter Selinger 2001-2019
</metadata>
<g transform="translate(0.000000,1617.000000) scale(0.100000,-0.100000)"
fill="#000000" stroke="none">
<path d="M2317 14994 c-574 -89 -1017 -516 -1134 -1092 -17 -83 -18 -375 -18
-5817 0 -5442 1 -5734 18 -5817 113 -558 527 -972 1085 -1085 83 -17 1190 -18
24577 -18 23387 0 24494 1 24577 18 555 113 972 530 1085 1085 17 83 18 375
18 5817 0 5442 -1 5734 -18 5817 -111 548 -507 950 -1062 1082 l-90 21 -24475
1 c-20720 2 -24489 0 -24563 -12z m5509 -1969 c-2 -5 -951 -557 -2109 -1225
l-2106 -1215 2 -2560 2 -2560 2098 -1211 c1154 -666 2103 -1216 2108 -1221 5
-5 8 -199 7 -490 l-3 -480 -2525 1457 -2525 1458 0 3048 0 3047 2525 1458
2525 1458 3 -477 c1 -262 0 -481 -2 -487z m2959 -502 l2510 -1450 3 -1401 2
-1402 -840 0 -840 0 0 415 0 415 420 0 420 0 0 743 -1 742 -1681 970 c-924
534 -1684 972 -1689 973 -5 2 -9 -228 -9 -527 l0 -531 -420 0 -420 0 0 1256
c0 1192 1 1256 18 1251 9 -2 1147 -657 2527 -1454z m-2712 -2214 c21 -6 56
-26 76 -45 l38 -34 851 0 851 0 46 32 c40 28 56 33 119 36 81 4 121 -8 175
-54 71 -59 101 -186 66 -271 l-16 -37 313 -738 c303 -716 313 -737 342 -744
42 -9 129 -99 144 -150 35 -119 -10 -229 -118 -288 -159 -87 -352 29 -352 213
0 35 7 71 17 91 l17 32 -214 504 -213 505 -3 -477 -2 -476 24 -19 c14 -11 37
-44 52 -74 54 -111 15 -244 -90 -310 -44 -27 -58 -30 -126 -30 -68 0 -82 3
-126 30 -105 66 -144 199 -90 310 15 30 38 63 52 74 l24 19 -2 476 -3 476
-213 -503 -212 -503 17 -34 c21 -43 21 -133 -1 -185 -86 -202 -378 -193 -452
14 -42 115 26 261 139 302 35 12 36 16 344 743 l310 731 -831 3 -830 2 -23
-22 -23 -21 0 -1559 0 -1558 -145 0 -145 0 0 1553 0 1553 -28 27 -28 27 -795
-2 -796 -3 310 -731 c308 -727 309 -731 344 -743 113 -41 181 -187 139 -302
-74 -207 -366 -216 -452 -14 -22 52 -22 142 -1 185 l17 34 -212 503 -213 503
-3 -476 -2 -476 24 -19 c14 -11 37 -44 52 -74 54 -111 15 -244 -90 -310 -44
-27 -58 -30 -126 -30 -68 0 -82 3 -126 30 -105 66 -144 199 -90 310 15 30 38
63 52 74 l24 19 -2 476 -3 477 -213 -505 -214 -504 17 -32 c10 -20 17 -56 17
-91 0 -184 -193 -300 -352 -213 -108 59 -153 169 -118 288 15 51 102 141 144
150 29 7 39 28 342 744 l313 738 -16 37 c-35 85 -5 212 66 271 54 46 94 58
175 54 63 -3 79 -8 119 -36 l46 -32 816 0 817 0 32 31 c55 53 142 72 227 48z
m23827 -634 l0 -495 -49 0 -49 0 -17 50 c-21 64 -62 104 -119 119 -32 8 -383
11 -1240 11 l-1196 0 0 -450 0 -450 783 0 c533 0 794 4 821 11 52 14 90 54
112 117 l19 52 47 0 48 0 0 -485 0 -485 -48 0 c-48 0 -49 1 -60 38 -18 56 -48
99 -84 119 -31 17 -85 18 -835 21 l-803 3 0 -521 0 -520 1228 0 c808 0 1242 4
1272 11 66 15 104 58 134 152 4 13 17 17 56 17 l50 0 0 -496 0 -495 -51 3 -51
3 -19 49 c-21 55 -41 81 -84 105 -27 15 -178 16 -1792 19 l-1763 2 0 50 c0 41
3 50 18 50 33 1 116 55 137 90 20 35 20 41 20 1715 0 1674 0 1680 -20 1715
-21 35 -104 89 -137 90 -15 0 -18 9 -18 50 l0 50 1694 0 c1102 0 1712 4 1747
10 65 13 100 44 131 117 l22 53 48 0 48 0 0 -495z m-14547 355 c343 -52 603
-152 1064 -409 231 -128 314 -165 352 -156 14 3 45 20 69 36 l43 31 34 -24
c19 -12 35 -26 35 -31 0 -5 -508 -775 -526 -795 -1 -2 -20 8 -41 22 -37 26
-38 28 -39 89 -1 110 -53 176 -225 282 -263 163 -564 272 -856 310 -131 17
-409 20 -533 5 -459 -56 -808 -254 -1027 -583 -146 -218 -206 -431 -206 -722
0 -291 60 -504 206 -722 219 -329 568 -527 1027 -583 123 -15 402 -12 532 5
281 37 570 139 821 289 201 121 263 192 261 303 -2 61 -1 62 38 89 23 16 42
23 47 18 5 -5 125 -185 268 -399 l260 -390 -39 -27 -38 -28 -46 35 c-30 23
-56 35 -78 35 -36 0 -163 -59 -318 -148 -472 -271 -778 -385 -1168 -434 -160
-20 -651 -17 -810 5 -990 138 -1640 725 -1802 1627 -9 51 -13 161 -13 340 1
250 2 272 28 395 80 373 234 666 492 934 347 361 797 559 1405 620 166 17 624
6 783 -19z m8687 20 c339 -31 582 -96 1060 -285 129 -51 252 -98 274 -105 49
-16 99 -7 148 25 35 24 43 25 69 15 60 -25 66 -10 -171 -477 -122 -241 -225
-442 -230 -447 -5 -4 -27 2 -50 15 -34 19 -41 28 -37 47 14 72 -43 144 -190
243 -255 170 -556 276 -881 310 -178 18 -489 7 -632 -24 -210 -45 -359 -128
-438 -246 -50 -76 -66 -133 -60 -220 11 -152 110 -235 333 -280 126 -25 261
-42 695 -86 190 -20 403 -45 473 -55 668 -102 1023 -336 1176 -774 96 -274 77
-578 -54 -841 -168 -339 -453 -543 -930 -665 -567 -145 -1179 -117 -1768 81
-140 47 -262 97 -496 204 -135 62 -173 66 -227 27 l-40 -29 -40 20 c-21 11
-41 21 -43 23 -2 2 90 215 204 473 l207 469 42 -17 c39 -17 41 -20 47 -72 16
-150 135 -268 383 -384 463 -217 1069 -286 1473 -169 313 91 495 284 481 508
-5 79 -22 118 -69 165 -99 100 -267 136 -977 211 -475 50 -648 73 -782 106
-107 27 -244 76 -335 122 -203 101 -384 300 -469 513 -52 132 -60 189 -61 394
0 164 3 202 23 278 83 331 308 592 648 754 196 93 439 152 719 176 95 8 419 6
525 -3z m13650 -15 c548 -76 975 -292 1303 -660 221 -249 366 -538 431 -865
111 -556 16 -1065 -283 -1516 -321 -485 -800 -770 -1441 -859 -163 -22 -516
-31 -689 -16 -335 29 -601 97 -856 221 -526 254 -900 731 -1029 1311 -158 714
88 1473 623 1922 323 271 736 429 1246 476 144 14 557 5 695 -14z m4890 0
c609 -85 1074 -347 1413 -797 355 -470 462 -1169 272 -1764 -67 -208 -215
-477 -353 -643 -276 -331 -634 -548 -1076 -651 -214 -50 -357 -64 -656 -64
-181 -1 -323 4 -390 12 -664 84 -1160 370 -1495 862 -77 112 -184 334 -229
471 -67 207 -96 393 -96 626 0 314 58 583 184 848 204 429 527 744 951 926
245 105 468 156 840 193 93 9 526 -4 635 -19z m-22490 -90 c0 -44 -1 -45 -50
-66 -28 -12 -64 -37 -80 -56 -26 -29 -30 -41 -30 -92 0 -32 7 -77 15 -100 18
-51 1495 -3042 1547 -3132 72 -124 138 -183 243 -214 38 -12 40 -14 43 -59 l3
-46 -705 0 -706 0 0 49 0 48 38 7 c81 12 142 81 142 157 0 55 -18 98 -173 416
l-142 293 -863 -3 -863 -2 -135 -280 c-146 -305 -180 -395 -170 -451 10 -50
51 -91 121 -119 l60 -24 3 -45 3 -46 -635 0 -636 0 0 50 c0 46 2 50 23 50 13
0 51 14 85 31 72 35 107 79 174 214 173 347 1459 3051 1472 3094 38 131 0 223
-109 262 -33 12 -35 15 -35 61 l0 48 680 0 680 0 0 -45z m13479 26 c291 -50
481 -139 642 -301 160 -161 242 -364 255 -634 19 -367 -129 -643 -439 -823
l-65 -38 57 -24 c235 -101 429 -291 509 -498 44 -113 62 -224 62 -378 0 -275
-65 -474 -214 -661 -145 -180 -352 -307 -612 -374 -230 -60 -241 -60 -1796
-60 l-1418 0 0 48 0 48 46 13 c58 17 109 65 123 116 16 57 16 3303 0 3360 -14
51 -65 99 -123 116 l-46 13 0 48 0 49 1473 -4 c1133 -2 1489 -6 1546 -16z
m12571 -29 c0 -47 0 -47 -42 -60 -62 -19 -106 -56 -118 -100 -7 -25 -10 -253
-8 -718 l3 -681 770 628 c424 346 793 650 822 677 100 94 83 157 -52 197 -38
12 -40 14 -43 59 l-3 46 786 0 786 0 -3 -47 -3 -46 -62 -17 c-77 -21 -95 -33
-330 -226 -103 -85 -479 -389 -836 -675 -356 -287 -649 -525 -652 -529 -8 -13
1553 -1888 1665 -2001 101 -102 180 -151 268 -165 l42 -7 0 -48 0 -49 -745 0
-745 0 0 48 0 48 43 11 c104 28 121 78 60 171 -30 45 -1148 1426 -1198 1481
-11 11 -61 -26 -294 -214 l-281 -228 0 -546 c0 -625 -4 -595 85 -643 28 -15
58 -28 68 -28 14 0 17 -9 17 -50 l0 -50 -600 0 -600 0 0 46 c0 39 3 47 22 52
54 14 121 58 139 92 18 33 19 94 19 1715 0 1621 -1 1682 -19 1715 -18 34 -85
78 -139 92 -19 5 -22 13 -22 52 l0 46 600 0 600 0 0 -48z m-41150 -2169 c-220
-390 -711 -607 -1196 -528 -329 53 -617 242 -778 510 -20 33 -36 63 -36 68 0
4 459 7 1021 7 l1021 0 -32 -57z m4100 50 c0 -5 -16 -35 -36 -68 -161 -268
-449 -457 -778 -510 -485 -79 -976 138 -1196 528 l-32 57 1021 0 c562 0 1021
-3 1021 -7z m2208 -1439 l-3 -1406 -2519 -1454 c-1385 -800 -2522 -1454 -2527
-1454 -5 0 -9 524 -9 1255 l0 1255 420 0 420 0 2 -530 3 -530 1685 973 1685
972 3 743 2 742 -420 0 -420 0 0 413 c0 228 3 417 7 420 3 4 381 7 840 7 l833
0 -2 -1406z m-4623 -4 l0 -145 -640 0 -640 0 -3 134 c-1 74 0 141 2 148 4 11
125 13 643 11 l638 -3 0 -145z m533 -502 l-3 -143 -1170 0 -1170 0 -3 143 -3
142 1176 0 1176 0 -3 -142z"/>
<path d="M7942 10137 c-28 -29 -29 -86 -3 -118 14 -18 29 -24 61 -24 52 0 80
30 80 84 0 73 -89 110 -138 58z"/>
<path d="M5965 10138 c-51 -27 -62 -98 -22 -136 51 -48 137 -13 137 55 0 45
-9 62 -41 78 -33 18 -47 18 -74 3z"/>
<path d="M10035 10138 c-51 -27 -62 -98 -22 -136 51 -48 137 -13 137 55 0 45
-9 62 -41 78 -33 18 -47 18 -74 3z"/>
<path d="M5165 8285 c-31 -31 -34 -86 -5 -115 44 -44 108 -34 139 21 45 81
-68 160 -134 94z"/>
<path d="M6720 8290 c-43 -43 -32 -112 23 -138 84 -40 158 68 92 133 -31 31
-86 34 -115 5z"/>
<path d="M9235 8285 c-66 -65 8 -173 92 -133 34 16 57 61 49 94 -17 64 -95 86
-141 39z"/>
<path d="M10790 8290 c-44 -44 -34 -108 21 -139 52 -29 119 13 119 74 0 72
-91 114 -140 65z"/>
<path d="M5942 8267 c-23 -25 -29 -75 -12 -107 5 -10 23 -23 40 -28 69 -25
132 35 110 104 -13 40 -35 54 -83 54 -22 0 -41 -8 -55 -23z"/>
<path d="M10018 8280 c-9 -6 -22 -26 -28 -44 -22 -69 41 -129 110 -104 85 29
59 158 -31 158 -19 0 -42 -5 -51 -10z"/>
<path d="M38993 9381 c-272 -49 -498 -167 -688 -356 -245 -246 -365 -552 -365
-935 0 -393 118 -697 365 -945 183 -182 396 -295 665 -352 122 -26 489 -26
609 0 281 61 485 171 669 361 186 194 305 438 349 721 32 207 4 497 -68 702
-139 399 -490 697 -934 793 -145 32 -458 37 -602 11z"/>
<path d="M43925 9389 c-551 -85 -953 -461 -1071 -999 -15 -69 -19 -128 -19
-305 0 -237 9 -306 62 -465 119 -354 407 -645 764 -771 277 -98 645 -107 934
-24 449 129 785 507 882 993 25 124 24 402 -1 537 -76 406 -309 722 -661 898
-211 106 -352 137 -630 142 -110 2 -227 0 -260 -6z"/>
<path d="M21069 8347 l-305 -662 302 -3 c166 -1 442 -1 612 0 l310 3 -301 663
c-166 364 -304 662 -307 662 -3 0 -143 -299 -311 -663z"/>
<path d="M33570 8920 l0 -440 783 0 c477 0 815 4 865 10 162 21 274 71 331
151 115 158 103 466 -23 588 -68 65 -189 106 -359 121 -56 5 -438 9 -849 10
l-748 0 0 -440z"/>
<path d="M33570 7325 l0 -516 813 4 c855 5 888 6 1029 53 220 71 320 213 321
454 2 275 -124 428 -405 493 -90 20 -119 21 -925 24 l-833 4 0 -516z"/>
</g>
</svg>
