<?xml version="1.0" standalone="no"?>
<!DOCTYPE svg PUBLIC "-//W3C//DTD SVG 20010904//EN"
 "http://www.w3.org/TR/2001/REC-SVG-20010904/DTD/svg10.dtd">
<svg version="1.0" xmlns="http://www.w3.org/2000/svg"
 width="134.000000pt" height="134.000000pt" viewBox="0 0 134.000000 134.000000"
 preserveAspectRatio="xMidYMid meet">
<metadata>
Created by potrace 1.16, written by Peter Selinger 2001-2019
</metadata>
<g transform="translate(0.000000,134.000000) scale(0.100000,-0.100000)"
fill="#000000" stroke="none">
<path d="M99 1241 l-39 -39 0 -532 0 -532 39 -39 39 -39 532 0 532 0 39 39 39
39 0 532 0 532 -39 39 -39 39 -532 0 -532 0 -39 -39z m559 -173 c-3 -30 -13
-38 -158 -123 l-155 -91 0 -189 0 -189 131 -75 c186 -108 184 -107 184 -141 0
-17 -5 -30 -10 -30 -6 0 -92 46 -190 103 l-179 102 -1 230 0 230 178 102 c97
57 183 103 190 103 9 0 12 -11 10 -32z m223 -70 l179 -103 0 -108 0 -108 -62
3 c-63 3 -63 3 -63 33 0 27 4 30 33 33 l33 3 -3 52 -3 51 -115 68 c-63 37
-118 68 -122 68 -5 0 -8 -16 -8 -35 0 -33 -2 -35 -35 -35 l-35 0 0 90 c0 62 4
90 12 90 6 0 91 -46 189 -102z m-30 -218 c10 -29 26 -64 35 -77 11 -17 13 -28
6 -35 -13 -13 -32 -2 -32 20 -1 9 -7 28 -16 42 -14 24 -14 24 -12 -20 2 -35 0
-45 -12 -45 -11 0 -14 11 -12 45 l2 45 -17 -42 c-22 -51 -32 -61 -42 -44 -5 8
0 29 14 55 13 22 26 51 30 64 6 21 4 22 -54 22 l-61 0 0 -120 c0 -100 -2 -120
-15 -120 -12 0 -15 20 -15 120 l0 120 -56 0 c-53 0 -55 -1 -49 -22 4 -13 17
-42 30 -64 14 -26 19 -47 14 -55 -10 -17 -20 -7 -42 44 l-17 42 2 -45 c2 -34
-1 -45 -12 -45 -12 0 -14 10 -12 45 2 44 2 44 -12 20 -9 -14 -15 -33 -16 -42
0 -20 -19 -33 -30 -22 -5 5 4 35 20 69 16 33 30 67 30 76 0 9 2 18 4 20 2 2
77 3 167 2 l162 -1 18 -52z m209 -237 l-1 -108 -179 -102 c-98 -57 -184 -103
-190 -103 -6 0 -10 34 -10 90 l0 90 35 0 c33 0 35 -2 35 -35 0 -19 3 -35 8
-34 4 0 59 31 122 68 l115 67 3 52 3 51 -33 3 c-22 2 -34 9 -36 21 -8 38 5 47
68 47 l60 0 0 -107z"/>
</g>
</svg>
