<?xml version="1.0" standalone="no"?>
<!DOCTYPE svg PUBLIC "-//W3C//DTD SVG 20010904//EN"
 "http://www.w3.org/TR/2001/REC-SVG-20010904/DTD/svg10.dtd">
<svg version="1.0" xmlns="http://www.w3.org/2000/svg"
 width="5000.000000pt" height="5000.000000pt" viewBox="0 0 5000.000000 5000.000000"
 preserveAspectRatio="xMidYMid meet">
<metadata>
Created by potrace 1.16, written by Peter Selinger 2001-2019
</metadata>
<g transform="translate(0.000000,5000.000000) scale(0.100000,-0.100000)"
fill="#000000" stroke="none">
<path d="M30 25000 l0 -24970 24970 0 24970 0 0 24970 0 24970 -24970 0
-24970 0 0 -24970z m24458 16974 l-3 -1207 -5277 -3046 -5277 -3046 2 -6399 2
-6399 5270 -3043 c2899 -1674 5273 -3044 5278 -3046 4 -2 6 -546 5 -1210 l-3
-1207 -6305 3640 c-3468 2002 -6315 3647 -6327 3655 l-23 14 0 7598 0 7598
6323 3651 c3477 2009 6325 3652 6330 3652 4 1 6 -542 5 -1205z m7370 -2453
l6312 -3645 0 -3493 0 -3493 -2095 0 -2095 0 0 1040 0 1040 1045 0 1045 0 0
1853 -1 1852 -4232 2443 -4232 2443 -3 -1336 -2 -1335 -1038 2 -1037 3 -3
3138 c-2 2608 0 3138 11 3135 8 -2 2854 -1643 6325 -3647z m-6759 -5546 c90
-29 180 -86 245 -155 l47 -50 2125 0 2126 0 55 50 c232 206 590 192 814 -32
181 -181 228 -463 114 -688 l-23 -45 779 -1839 c428 -1012 781 -1841 783
-1844 3 -2 33 -14 68 -26 165 -58 310 -204 368 -369 30 -85 38 -238 16 -329
-26 -110 -79 -203 -165 -289 -318 -317 -839 -192 -987 236 -23 68 -28 96 -28
185 0 115 11 163 56 258 l29 63 -538 1271 -538 1271 -3 -1207 -2 -1207 69 -69
c51 -51 81 -92 111 -152 90 -183 91 -359 4 -538 -28 -57 -57 -95 -118 -155
-124 -123 -248 -175 -416 -175 -203 0 -383 94 -495 260 -66 98 -96 188 -102
310 -10 173 48 320 173 448 l74 75 -2 1209 -3 1209 -533 -1259 c-293 -693
-536 -1268 -538 -1279 -3 -11 6 -43 19 -70 39 -76 57 -161 57 -264 0 -174 -49
-290 -175 -416 -63 -63 -99 -91 -156 -118 -181 -85 -355 -84 -534 4 -223 111
-360 365 -326 607 33 232 195 426 416 498 l50 16 778 1838 c427 1010 777 1840
777 1845 0 4 -936 7 -2081 7 l-2081 0 -64 -66 -64 -67 0 -3893 0 -3894 -360 0
-360 0 0 3888 0 3889 -72 71 -71 72 -1994 0 c-1096 0 -1993 -3 -1993 -7 0 -5
350 -835 777 -1845 l778 -1838 50 -16 c179 -59 327 -204 391 -385 40 -115 37
-276 -7 -394 -51 -136 -165 -262 -294 -326 -179 -88 -353 -89 -534 -4 -57 27
-93 55 -156 118 -126 126 -175 242 -175 416 0 103 18 188 57 264 13 27 22 59
19 70 -2 11 -245 586 -538 1279 l-533 1259 -3 -1209 -2 -1209 74 -75 c125
-128 183 -275 173 -448 -6 -122 -36 -212 -102 -310 -112 -166 -292 -260 -495
-260 -168 0 -292 52 -416 175 -153 151 -211 338 -169 540 23 111 85 224 166
305 l69 69 -2 1207 -3 1207 -538 -1271 -538 -1271 29 -63 c45 -95 56 -143 56
-258 0 -89 -5 -117 -28 -185 -148 -428 -670 -553 -987 -236 -86 86 -139 179
-165 289 -22 91 -14 244 16 329 58 165 203 311 368 369 35 12 65 24 68 26 2 3
355 832 783 1844 l779 1839 -23 45 c-166 327 16 739 372 843 189 56 409 7 556
-123 l55 -50 2039 0 2038 0 50 52 c162 168 388 224 614 153z m-2649 -6197 c0
-7 -31 -66 -68 -131 -413 -718 -1136 -1190 -2032 -1329 -196 -30 -667 -33
-855 -5 -537 80 -979 260 -1380 562 -202 151 -422 378 -567 585 -47 66 -188
309 -188 323 0 4 1145 7 2545 7 2029 0 2545 -3 2545 -12z m10190 5 c0 -14
-141 -257 -188 -323 -145 -207 -365 -434 -567 -585 -400 -301 -844 -482 -1380
-562 -188 -28 -659 -25 -855 5 -897 139 -1619 611 -2032 1329 -37 65 -68 124
-68 131 0 9 516 12 2545 12 1400 0 2545 -3 2545 -7z m5530 -3607 c0 -2783 -3
-3496 -12 -3504 -18 -14 -12626 -7292 -12633 -7292 -3 0 -4 1414 -3 3143 l3
3142 1037 3 1038 2 2 -1339 3 -1338 4230 2442 4230 2442 3 1857 2 1856 -1045
0 -1045 0 0 1040 0 1040 2095 0 2095 0 0 -3494z m-11580 -16 l0 -360 -1590 0
-1590 0 0 360 0 360 1590 0 1590 0 0 -360z m1340 -1255 l0 -355 -2930 0 -2930
0 0 355 0 355 2930 0 2930 0 0 -355z m-3580 -14235 l0 -360 -34 0 c-30 0 -35
4 -50 45 -10 25 -29 54 -43 65 -25 20 -39 20 -904 20 l-879 0 0 -320 0 -320
570 0 c614 0 611 0 638 52 6 12 16 35 22 51 8 22 15 27 45 27 l35 0 0 -355 0
-355 -34 0 c-30 0 -35 4 -50 45 -10 25 -29 54 -43 65 -25 20 -40 20 -604 20
l-579 0 0 -370 0 -370 895 0 c966 0 935 -2 963 52 6 12 16 35 22 51 8 22 15
27 45 27 l35 0 0 -360 0 -360 -35 0 c-32 0 -36 4 -56 49 -37 88 79 81 -1348
81 l-1261 0 0 34 c0 30 5 36 48 57 90 45 82 -69 80 1299 -3 1350 4 1234 -80
1272 -43 19 -48 25 -48 55 l0 33 1243 2 c1404 3 1279 -5 1318 84 18 40 23 44
54 44 l35 0 0 -360z m-10497 265 c260 -34 463 -112 842 -324 60 -34 129 -68
152 -77 41 -16 43 -16 88 11 44 25 47 26 71 10 14 -9 23 -23 20 -30 -4 -10
-359 -548 -372 -563 -1 -2 -16 4 -33 14 -28 17 -31 23 -31 70 0 70 -35 116
-140 184 -361 231 -798 306 -1197 205 -175 -45 -317 -125 -446 -252 -155 -153
-237 -332 -256 -560 -27 -314 70 -582 282 -779 140 -131 319 -215 532 -250
134 -22 369 -22 500 0 282 49 648 228 711 348 8 15 14 47 14 71 0 36 5 47 30
65 l30 22 190 -285 c104 -156 190 -288 190 -293 0 -4 -12 -15 -27 -24 -27 -15
-29 -15 -58 8 -54 43 -64 40 -313 -98 -401 -224 -631 -293 -1007 -305 -546
-17 -965 120 -1278 416 -250 238 -390 539 -416 898 -30 391 77 730 321 1020
228 273 557 441 969 497 144 19 488 20 632 1z m6378 0 c203 -26 361 -73 675
-196 111 -43 215 -79 230 -79 16 0 44 9 63 21 29 17 38 19 62 8 16 -6 29 -16
29 -22 0 -8 -315 -635 -325 -645 -1 -1 -16 5 -34 15 -25 15 -31 24 -31 53 0
47 -41 96 -128 153 -151 100 -326 171 -514 209 -159 32 -448 32 -586 0 -163
-38 -281 -113 -328 -209 -28 -60 -31 -143 -5 -196 53 -109 136 -133 656 -187
351 -36 474 -54 603 -85 314 -76 509 -215 617 -440 50 -103 67 -176 72 -310 7
-177 -29 -316 -122 -461 -148 -231 -403 -368 -820 -441 -144 -24 -519 -25
-670 0 -247 41 -451 104 -703 218 -84 38 -163 69 -176 69 -13 0 -36 -10 -51
-21 -26 -21 -28 -21 -61 -5 -28 13 -33 19 -26 34 5 9 73 162 152 340 78 177
144 322 146 322 3 0 18 -7 34 -15 25 -13 30 -22 30 -51 0 -106 103 -202 318
-294 544 -235 1185 -174 1333 127 19 38 24 64 24 125 0 70 -2 79 -31 114 -69
86 -191 117 -654 164 -575 59 -683 81 -875 178 -176 89 -314 264 -361 457 -24
96 -23 295 0 390 56 224 224 424 451 538 123 61 293 107 480 130 83 10 430 5
526 -8z m9732 0 c332 -43 603 -160 824 -356 228 -202 369 -446 435 -752 30
-141 33 -459 4 -587 -62 -283 -188 -515 -390 -716 -163 -163 -317 -258 -529
-329 -384 -128 -900 -127 -1271 2 -486 169 -831 570 -922 1073 -24 130 -24
390 0 520 78 430 350 798 731 988 153 76 374 139 560 160 132 15 433 13 558
-3z m3518 0 c212 -28 372 -76 542 -163 267 -135 477 -348 608 -617 108 -221
145 -411 136 -690 -4 -96 -13 -200 -22 -239 -59 -261 -195 -511 -378 -697
-268 -273 -625 -411 -1102 -426 -579 -18 -1028 156 -1324 513 -570 688 -369
1755 405 2151 167 86 343 138 559 167 135 19 443 19 576 1z m-16191 -70 c0
-30 -5 -37 -34 -49 -75 -31 -95 -90 -62 -182 8 -22 217 -451 466 -954 249
-503 492 -996 540 -1095 117 -239 155 -295 223 -328 28 -14 60 -28 70 -31 12
-4 17 -16 17 -41 l0 -35 -510 0 -510 0 0 35 c0 25 5 37 18 41 84 26 118 68
109 137 -3 22 -54 140 -114 263 l-108 223 -619 -2 -620 -2 -105 -219 c-140
-293 -143 -337 -31 -385 46 -20 50 -24 50 -56 l0 -35 -461 0 -460 0 3 37 c3
34 6 37 50 50 63 18 100 58 155 167 111 222 1043 2177 1057 2220 31 90 12 149
-60 187 -38 21 -44 28 -44 56 l0 33 490 0 490 0 0 -35z m9779 11 c180 -43 281
-96 392 -207 123 -122 175 -250 186 -454 6 -134 -11 -226 -62 -333 -42 -89
-149 -201 -238 -252 l-59 -33 64 -32 c242 -119 369 -306 385 -566 28 -467
-270 -781 -795 -838 -68 -7 -442 -11 -1113 -11 l-1010 0 3 37 c3 32 7 38 43
50 22 7 50 25 63 39 l22 25 0 1223 c0 1210 0 1224 -20 1249 -11 14 -40 33 -65
43 -41 15 -45 20 -45 51 l0 34 1088 -4 c998 -3 1093 -5 1161 -21z m8991 -9 c0
-28 -5 -35 -42 -52 -23 -11 -51 -33 -63 -48 -19 -28 -20 -43 -23 -529 -3 -486
-2 -499 16 -486 10 7 275 223 589 480 392 321 574 476 582 497 18 42 1 67 -59
88 -46 16 -50 20 -50 50 l0 33 570 0 570 0 0 -34 c0 -33 -2 -35 -53 -50 -40
-11 -82 -39 -174 -113 -66 -54 -338 -273 -604 -487 -266 -214 -494 -398 -507
-411 l-23 -22 527 -634 c290 -349 567 -680 615 -735 94 -108 157 -157 224
-175 22 -6 46 -13 53 -15 6 -2 12 -19 12 -39 l0 -35 -540 0 -540 0 0 35 c0 25
5 37 18 41 96 30 107 55 59 127 -50 76 -868 1072 -877 1070 -5 -1 -99 -75
-209 -164 l-201 -162 0 -361 c1 -199 5 -381 9 -406 10 -50 46 -87 92 -97 26
-5 29 -10 29 -44 l0 -39 -436 0 -435 0 3 37 c3 32 7 38 43 50 22 7 50 25 63
39 l22 25 0 1223 c0 1210 0 1224 -20 1249 -11 14 -40 33 -65 43 -41 15 -45 20
-45 50 l0 34 435 0 435 0 0 -33z"/>
<path d="M24865 33621 c-105 -26 -169 -107 -170 -216 0 -116 81 -205 195 -213
71 -5 120 10 167 51 132 116 75 337 -97 376 -51 12 -53 12 -95 2z"/>
<path d="M19846 33576 c-76 -28 -126 -83 -147 -159 -24 -90 26 -200 110 -244
87 -45 203 -24 268 50 63 72 70 178 17 264 -49 80 -163 120 -248 89z"/>
<path d="M30023 33576 c-63 -20 -99 -51 -127 -108 -47 -94 -28 -199 47 -265
47 -41 96 -56 167 -51 218 16 270 312 73 412 -46 23 -111 28 -160 12z"/>
<path d="M17906 28990 c-103 -33 -169 -142 -151 -249 29 -172 246 -240 371
-116 131 131 47 356 -138 370 -29 3 -66 0 -82 -5z"/>
<path d="M21770 28984 c-45 -20 -87 -59 -111 -106 -23 -46 -25 -134 -4 -186
55 -129 229 -171 339 -80 126 104 95 309 -56 372 -47 20 -122 20 -168 0z"/>
<path d="M28060 28984 c-150 -65 -179 -269 -54 -372 110 -91 284 -49 339 80
21 52 19 140 -4 186 -53 103 -178 150 -281 106z"/>
<path d="M31959 28987 c-60 -23 -96 -54 -123 -109 -44 -89 -30 -185 39 -253
99 -99 267 -80 340 39 25 42 30 59 30 115 -1 91 -41 158 -118 198 -41 21 -125
26 -168 10z"/>
<path d="M19870 28948 c-194 -34 -235 -307 -60 -402 46 -25 60 -28 120 -24 86
5 142 39 178 111 86 165 -52 348 -238 315z"/>
<path d="M30028 28946 c-178 -46 -220 -285 -69 -391 36 -25 53 -30 114 -33 65
-3 77 0 122 27 37 21 58 43 79 81 25 46 28 60 24 120 -3 57 -9 77 -33 112 -52
72 -148 106 -237 84z"/>
<path d="M29512 8470 c-379 -54 -676 -315 -767 -675 -61 -241 -36 -514 67
-720 90 -179 250 -333 433 -416 255 -115 635 -110 878 12 237 120 390 309 473
584 26 84 28 103 28 270 0 162 -3 190 -26 276 -110 406 -446 660 -893 674 -71
2 -158 0 -193 -5z"/>
<path d="M33009 8465 c-344 -54 -623 -290 -727 -615 -36 -113 -45 -181 -45
-325 0 -275 76 -479 242 -657 203 -217 493 -319 823 -288 343 33 607 210 750
505 68 141 89 230 95 400 6 164 -10 278 -57 406 -151 415 -594 650 -1081 574z"/>
<path d="M16769 8158 c-7 -12 -106 -225 -220 -473 l-208 -450 219 -3 c121 -1
318 -1 438 0 l218 3 -213 469 c-117 258 -215 471 -217 474 -3 2 -10 -7 -17
-20z"/>
<path d="M25560 8125 l0 -315 533 0 c292 0 575 5 628 10 162 16 247 61 295
156 15 32 19 60 19 154 0 101 -3 121 -24 163 -27 56 -81 99 -155 124 -46 16
-117 18 -673 21 l-623 3 0 -316z"/>
<path d="M25560 6980 l0 -370 568 0 c582 0 659 4 770 41 93 31 141 71 182 154
33 66 35 75 35 170 0 199 -70 296 -258 353 -45 14 -139 16 -674 19 l-623 4 0
-371z"/>
</g>
</svg>
