<?xml version="1.0" standalone="no"?>
<!DOCTYPE svg PUBLIC "-//W3C//DTD SVG 20010904//EN"
 "http://www.w3.org/TR/2001/REC-SVG-20010904/DTD/svg10.dtd">
<svg version="1.0" xmlns="http://www.w3.org/2000/svg"
 width="1280.000000pt" height="1280.000000pt" viewBox="0 0 1280.000000 1280.000000"
 preserveAspectRatio="xMidYMid meet">
<metadata>
Created by potrace 1.15, written by Peter Selinger 2001-2017
</metadata>
<g transform="translate(0.000000,1280.000000) scale(0.100000,-0.100000)"
fill="#4caf50" stroke="none">
<path d="M6095 12794 c-1453 -77 -2788 -613 -3885 -1558 -138 -119 -447 -423
-570 -561 -517 -579 -915 -1221 -1194 -1928 -224 -567 -361 -1145 -423 -1792
-24 -252 -24 -858 0 -1110 108 -1120 456 -2103 1068 -3016 355 -531 836 -1049
1344 -1450 989 -780 2125 -1232 3410 -1356 252 -24 858 -24 1110 0 1113 107
2103 456 3004 1059 338 227 614 452 919 753 264 259 421 437 632 717 728 964
1148 2057 1267 3293 24 252 24 858 0 1110 -137 1422 -679 2669 -1617 3720
-123 138 -432 442 -570 561 -1031 889 -2265 1413 -3625 1539 -162 15 -716 27
-870 19z m525 -2385 c615 -61 1156 -302 1535 -683 246 -247 428 -573 514 -921
44 -178 56 -297 56 -575 0 -346 -31 -567 -111 -806 -138 -412 -413 -725 -835
-948 -218 -115 -423 -185 -771 -261 l-216 -48 -4 -311 c-5 -337 -8 -357 -68
-476 -51 -101 -155 -187 -281 -231 -94 -34 -285 -34 -384 -1 -170 57 -271 167
-322 352 -16 59 -18 117 -18 625 0 501 2 566 17 615 37 119 105 148 548 239
310 64 467 118 633 217 331 199 516 500 546 888 26 342 -74 602 -328 857 -112
112 -179 161 -301 220 -168 81 -318 113 -545 113 -309 1 -529 -57 -735 -192
-112 -74 -296 -258 -447 -447 -138 -172 -284 -318 -347 -346 -58 -25 -202 -39
-286 -28 -94 13 -164 51 -246 133 -123 123 -162 238 -151 449 17 311 118 549
341 800 246 275 590 494 996 631 406 137 777 178 1210 135z m-255 -6980 c67
-13 178 -69 246 -123 68 -55 124 -126 178 -226 184 -342 4 -770 -379 -901 -99
-34 -258 -32 -361 3 -109 38 -194 91 -275 172 -127 127 -181 278 -171 475 8
176 66 299 198 426 170 162 345 216 564 174z"/>
</g>
</svg>
